Coordinates
version=1
nRows=14
nColumns=36
inDegrees=yes

Units are S.I. units (second, meters, Newtons, ...)
If the header above contains a line with 'inDegrees', this indicates whether rotational values are in degrees (yes) or radians (no).

endheader
time	pelvis_tilt	pelvis_list	pelvis_rotation	pelvis_tx	pelvis_ty	pelvis_tz	hip_flexion_r	hip_adduction_r	hip_rotation_r	knee_angle_r	knee_angle_r_beta	ankle_angle_r	subtalar_angle_r	mtp_angle_r	hip_flexion_l	hip_adduction_l	hip_rotation_l	knee_angle_l	knee_angle_l_beta	ankle_angle_l	subtalar_angle_l	mtp_angle_l	lumbar_extension	lumbar_bending	lumbar_rotation	arm_flex_r	arm_add_r	arm_rot_r	elbow_flex_r	pro_sup_r	arm_flex_l	arm_add_l	arm_rot_l	elbow_flex_l	pro_sup_l
      1.16000000	      3.35458013	      4.64339109	     94.50641862	     -0.22321683	      0.95973217	     -0.32997035	      9.50332369	      5.92048730	     -9.83574646	     20.84903797	      0.36388436	      4.98946811	     -5.73491061	     -7.50002372	      6.46998065	     -7.53568866	     -2.41858146	     64.72799957	      1.12971671	    -23.22412334	    -26.56322451	     -7.50002372	    -16.54578180	      5.84142475	     -1.50723618	     -0.17862302	     -4.87761679	    -36.60194473	     41.02765518	    110.37080695	     13.42467831	     -2.30439895	    -28.49751782	     35.12405082	     85.06094924
      1.17000000	      3.02827090	      4.60283821	     94.63498115	     -0.22274544	      0.96157784	     -0.34022237	      8.54093216	      5.73459172	     -9.56314532	     20.30425930	      0.35437618	      5.28075021	     -5.56609799	     -7.50002367	      8.30633534	     -7.12743096	     -2.19968891	     65.77033568	      1.14790891	    -21.10340168	    -28.42728240	     -7.50002367	    -16.77853958	      5.42217889	     -1.34199599	      0.25274049	     -4.90248894	    -36.46048074	     41.20473764	    110.60709501	     13.12108996	     -2.41943816	    -28.74659087	     34.44546825	     85.12545598
      1.18000000	      2.85093310	      4.41698365	     94.73627029	     -0.22208493	      0.96296168	     -0.35056553	      7.75818689	      5.68647910	     -9.51410627	     19.74911050	      0.34468700	      5.57729444	     -5.35023150	     -7.50002363	     10.25403534	     -6.90240794	     -2.05750224	     66.48995728	      1.16046867	    -19.13761926	    -30.01681141	     -7.50002363	    -16.79120974	      5.14716692	     -1.12389577	      0.61667287	     -4.94807509	    -36.31256182	     41.47440659	    110.81296727	     12.76280265	     -2.54483472	    -29.04089603	     33.69787943	     85.17282965
      1.19000000	      2.84403790	      3.79177306	     95.00930361	     -0.22179224	      0.96332642	     -0.36105472	      7.50803631	      5.73986699	     -9.73820994	     19.32307980	      0.33725136	      6.16365460	     -5.09951770	     -7.50001997	     12.75013771	     -6.79905338	     -1.79086490	     67.11307540	      1.17134414	    -16.90542080	    -30.86418415	     -7.50001997	    -16.14218744	      5.07876876	     -0.99118835	      0.49741906	     -5.26491897	    -35.23562262	     42.04933204	    108.14225680	     12.65333786	     -2.33557016	    -30.29273933	     32.34227541	     82.60189699
      1.20000000	      2.62143401	      3.36797026	     94.84125694	     -0.22114621	      0.96406440	     -0.37139209	      7.02779896	      5.63021424	     -9.36092748	     18.89925968	      0.32985431	      6.58650549	     -4.89124081	     -7.50001419	     14.74789411	     -6.48428730	     -2.01400286	     67.19268395	      1.17273357	    -14.56883116	    -31.53843573	     -7.50001419	    -15.87153011	      4.72276946	     -0.66028180	      0.93440730	     -5.36821578	    -35.28136824	     42.24727172	    110.39233999	     12.25517296	     -2.21469631	    -31.91176120	     31.61766107	     84.72507927
      1.21000000	      2.38071311	      3.41535095	     94.66356905	     -0.22032419	      0.96547540	     -0.38216526	      5.87579248	      5.54537275	     -9.20215349	     18.20826064	      0.31779410	      6.93698855	     -4.41834347	     -7.50001237	     16.04003052	     -6.26793340	     -2.38193552	     66.83181745	      1.16643526	    -12.36104863	    -31.84472994	     -7.50001237	    -16.10635917	      4.36891380	     -0.31137105	      1.15075165	     -5.56919677	    -34.55348704	     42.83870347	    108.70240688	     11.72743134	     -2.35278782	    -32.26662515	     31.10893088	     83.39282408
      1.22000000	      1.99956163	      3.27392124	     94.37398490	     -0.21938554	      0.96653818	     -0.39286555	      5.03531281	      5.23214757	     -9.20381964	     17.73917489	      0.30960701	      7.37753299	     -3.52469167	     -7.50000857	     17.41010362	     -5.92192514	     -2.95486477	     66.14400835	      1.15443073	    -10.23390132	    -31.84281535	     -7.50000857	    -16.14151877	      3.81522347	      0.02573252	      1.59596274	     -5.62166502	    -34.40161809	     43.14418479	    110.02845523	     11.20482103	     -2.43305450	    -33.42924336	     30.49286677	     84.35757257
      1.23000000	      1.66858555	      3.35548864	     94.04250133	     -0.21846416	      0.96769789	     -0.40355917	      3.88513489	      5.00264777	     -9.13632085	     17.10330278	      0.29850895	      7.74938454	     -2.76688425	     -7.50000747	     18.41770893	     -5.65141808	     -3.57314924	     65.10503553	      1.13629723	     -8.53421039	    -31.71326226	     -7.50000747	    -16.44839631	      3.33840872	      0.41263490	      1.85115234	     -5.86231114	    -33.53121629	     43.76358272	    107.95141321	     10.50621955	     -2.64000858	    -33.59083378	     30.26364312	     83.02023954
      1.24000000	      1.31279767	      3.35518646	     93.68663893	     -0.21743396	      0.96856119	     -0.41418986	      2.89820582	      4.71562182	     -9.11200538	     16.59919312	      0.28971057	      8.16108856	     -2.01086118	     -7.50000644	     19.37644690	     -5.37800940	     -4.26385157	     63.66606813	      1.11118251	     -7.48408779	    -31.45618904	     -7.50000644	    -16.64778622	      2.81055166	      0.80212039	      2.12822916	     -6.08541316	    -32.72386255	     44.38378630	    106.05646871	      9.86515629	     -2.82521218	    -34.05818517	     29.95066933	     81.35553615
      1.25000000	      1.10985752	      3.09743598	     93.35654465	     -0.21652536	      0.96868154	     -0.42484163	      2.28832209	      4.46610874	     -9.65965059	     16.30069584	      0.28450081	      8.89813049	     -0.20988353	     -7.50000506	     20.59561261	     -5.25136441	     -4.92321266	     62.05665333	      1.08309292	     -7.02126897	    -30.87535073	     -7.50000506	    -16.50351402	      2.45277591	      1.07194365	      2.71363057	     -6.16018365	    -32.73182146	     44.58237089	    108.82713077	      9.13471873	     -2.88431281	    -35.33938064	     29.66795686	     82.62309085
      1.26000000	      0.83342277	      3.24625819	     92.80262569	     -0.21532522	      0.96938771	     -0.43600614	      1.10954317	      4.25104848	     -9.51123025	     15.77921427	      0.27539924	      9.12918714	      0.49694290	     -7.50000466	     21.00637653	     -5.16532200	     -5.90040656	     59.80044488	      1.04371466	     -6.70031897	    -30.22236072	     -7.50000466	    -16.80410232	      1.97362780	      1.65119883	      3.03872805	     -6.34633749	    -32.23905480	     45.11234617	    108.11825915	      8.35755082	     -3.08785504	    -35.72452797	     29.48688644	     82.21808595
      1.27000000	      0.61170779	      3.32099431	     92.22837998	     -0.21401572	      0.96960210	     -0.44674403	      0.09011148	      4.07002246	     -9.32905244	     15.34783978	      0.26787034	      9.45876034	      0.95513911	     -7.50000385	     21.44973730	     -5.19515043	     -7.05149548	     57.35017376	      1.00094936	     -6.58513324	    -29.47108156	     -7.50000385	    -17.04403094	      1.55963649	      2.20821912	      3.25426290	     -6.67602769	    -31.20861051	     45.94637005	    105.75372150	      7.70457306	     -3.21939475	    -36.27728094	     29.19105184	     80.44187349
      1.28000000	      0.52436528	      3.27211821	     91.84190965	     -0.21337055	      0.96940384	     -0.45758563	     -0.69950296	      3.85192672	    -10.18349796	     15.14290583	      0.26429357	     10.10987593	      3.39229332	     -7.50000297	     22.04230207	     -5.11119294	     -7.74376682	     54.75994084	      0.95574127	     -6.27022530	    -28.55561278	     -7.50000297	    -17.13618038	      1.38461359	      2.48765235	      3.86673179	     -6.83792291	    -31.08465135	     46.27238171	    107.87144367	      6.90009853	     -3.19664854	    -37.74348524	     29.11117009	     81.92705316
      1.29000000	      0.47221346	      3.40513727	     91.36469148	     -0.21238693	      0.96922405	     -0.46861949	     -1.80972593	      3.80314088	    -10.33039897	     14.68990555	      0.25638722	     10.50054387	      4.29200307	     -7.50000275	     22.26191989	     -5.13971170	     -8.62400307	     51.86405237	      0.90519848	     -5.92600331	    -27.39844595	     -7.50000275	    -17.38326702	      1.18248758	      2.97780327	      4.18103805	     -7.19257325	    -30.23281821	     46.81450828	    106.19460398	      6.10932300	     -3.34537171	    -38.05531894	     28.94379232	     80.55354856
